HIERARCHY
ROOT Hips
{
	OFFSET 0.00000 0.00000 0.00000
	CHANNELS 6 Xposition Yposition Zposition Zrotation Yrotation Xrotation 
	JOINT LHipJoint
	{
		OFFSET 0 0 0
		CHANNELS 3 Zrotation Yrotation Xrotation
		JOINT LeftUpLeg
		{
			OFFSET 1.59715 -1.91394 0.36268
			CHANNELS 3 Zrotation Yrotation Xrotation
			JOINT LeftLeg
			{
				OFFSET 2.53886 -6.97546 0.00000
				CHANNELS 3 Zrotation Yrotation Xrotation
				JOINT LeftFoot
				{
					OFFSET 2.77084 -7.61284 0.00000
					CHANNELS 3 Zrotation Yrotation Xrotation
					JOINT LeftToeBase
					{
						OFFSET 0.19855 -0.54550 2.06057
						CHANNELS 3 Zrotation Yrotation Xrotation
						End Site
						{
							OFFSET 0.00000 -0.00000 1.07182
						}
					}
				}
			}
		}
	}
	JOINT RHipJoint
	{
		OFFSET 0 0 0
		CHANNELS 3 Zrotation Yrotation Xrotation
		JOINT RightUpLeg
		{
			OFFSET -1.71086 -1.91394 0.36268
			CHANNELS 3 Zrotation Yrotation Xrotation
			JOINT RightLeg
			{
				OFFSET -2.59448 -7.12828 0.00000
				CHANNELS 3 Zrotation Yrotation Xrotation
				JOINT RightFoot
				{
					OFFSET -2.80237 -7.69945 0.00000
					CHANNELS 3 Zrotation Yrotation Xrotation
					JOINT RightToeBase
					{
						OFFSET -0.18280 -0.50224 2.06614
						CHANNELS 3 Zrotation Yrotation Xrotation
						End Site
						{
							OFFSET -0.00000 -0.00000 1.07055
						}
					}
				}
			}
		}
	}
	JOINT LowerBack
	{
		OFFSET 0 0 0
		CHANNELS 3 Zrotation Yrotation Xrotation
		JOINT Spine
		{
			OFFSET 0.04838 1.91536 -0.09733
			CHANNELS 3 Zrotation Yrotation Xrotation
			JOINT Spine1
			{
				OFFSET 0.04097 1.92183 -0.02751
				CHANNELS 3 Zrotation Yrotation Xrotation
				JOINT Neck
				{
					OFFSET 0 0 0
					CHANNELS 3 Zrotation Yrotation Xrotation
					JOINT Neck1
					{
						OFFSET 0.18766 3.12816 0.13727
						CHANNELS 3 Zrotation Yrotation Xrotation
						JOINT Head
						{
							OFFSET -0.11178 3.16074 0.02732
							CHANNELS 3 Zrotation Yrotation Xrotation
							End Site
							{
								OFFSET 0.47685 1.04189 0.57898
							}
						}
					}
				}
				JOINT LeftShoulder
				{
					OFFSET 0 0 0
					CHANNELS 3 Zrotation Yrotation Xrotation
					JOINT LeftArm
					{
						OFFSET 3.49325 0.99827 -0.10681
						CHANNELS 3 Zrotation Yrotation Xrotation
						JOINT LeftForeArm
						{
							OFFSET 5.12842 -0.00000 0.00000
							CHANNELS 3 Zrotation Yrotation Xrotation
							JOINT LeftHand
							{
								OFFSET 3.47396 -0.00000 0.00000
								CHANNELS 3 Zrotation Yrotation Xrotation
								JOINT LeftFingerBase
								{
									OFFSET 0 0 0
									CHANNELS 3 Zrotation Yrotation Xrotation
									JOINT LeftHandIndex1
									{
										OFFSET 0.72861 -0.00000 0.00000
										CHANNELS 3 Zrotation Yrotation Xrotation
										End Site
										{
											OFFSET 0.58742 -0.00000 0.00000
										}
									}
								}
								JOINT LThumb
								{
									OFFSET 0 0 0
									CHANNELS 3 Zrotation Yrotation Xrotation
									End Site
									{
										OFFSET 0.59639 -0.00000 0.59639
									}
								}
							}
						}
					}
				}
				JOINT RightShoulder
				{
					OFFSET 0 0 0
					CHANNELS 3 Zrotation Yrotation Xrotation
					JOINT RightArm
					{
						OFFSET -3.23261 1.50670 -0.18692
						CHANNELS 3 Zrotation Yrotation Xrotation
						JOINT RightForeArm
						{
							OFFSET -5.48477 -0.00000 -0.00000
							CHANNELS 3 Zrotation Yrotation Xrotation
							JOINT RightHand
							{
								OFFSET -3.47856 -0.00000 0.00000
								CHANNELS 3 Zrotation Yrotation Xrotation
								JOINT RightFingerBase
								{
									OFFSET 0 0 0
									CHANNELS 3 Zrotation Yrotation Xrotation
									JOINT RightHandIndex1
									{
										OFFSET -0.70997 -0.00000 0.00000
										CHANNELS 3 Zrotation Yrotation Xrotation
										End Site
										{
											OFFSET -0.57240 -0.00000 0.00000
										}
									}
								}
								JOINT RThumb
								{
									OFFSET 0 0 0
									CHANNELS 3 Zrotation Yrotation Xrotation
									End Site
									{
										OFFSET -0.58114 -0.00000 0.58114
									}
								}
							}
						}
					}
				}
			}
		}
	}
}
MOTION
Frames: 10
Frame Time: 0.0210526
0.00 0.00 0.00 -114.2880 -87.1747 -251.1200 0.0000 0.0000 0.0000 -9.8367 -20.8768 -37.1403 8.4063 16.4101 54.0134 0.4997 -6.5817 17.3649 0.2090 -2.9433 -8.1209 0.0000 0.0000 0.0000 19.8471 12.2280 -36.1568 -7.5630 -15.7882 50.9728 -0.5821 -14.0959 15.7193 -2.9660 -10.6398 31.0745 2.9673 1.9734 16.7865 3.1513 3.0655 3.8151 1.0282 1.3736 -5.3348 -0.0499 6.9483 1.4816 -3.6706 9.4479 10.1303 -0.9532 4.4976 3.1953 -0.0000 -0.0000 0.0000 -85.5867 -5.5789 17.0000 47.6480 -52.0017 -24.3080 -0.0000 -0.0000 5.4861 23.6537 27.5897 11.4672 -7.1250 0.0000 -0.0000 -7.7327 59.5176 -2.7514 -0.0000 -0.0000 0.0000 75.1087 1.9990 14.9260 -28.5036 39.5757 -10.4429 0.0000 -0.0000 -10.6568 -32.2224 15.7271 -9.6949 7.1250 -0.0000 -0.0000 -3.0070 -11.5886 -2.3449
0.00 0.00 0.00 -112.4470 -85.3695 -261.0570 0.0000 0.0000 0.0000 -14.1613 -15.9495 -25.4595 10.6344 17.7515 61.5884 -0.3684 -10.6845 3.9359 0.2030 -2.9008 -8.0026 0.0000 0.0000 0.0000 25.9211 10.7358 -23.4971 -10.5007 -17.6819 61.1490 0.0196 -2.4899 -0.6962 -0.5613 -4.7986 13.3351 3.3541 1.7261 12.4344 3.5115 2.7576 2.4206 1.3491 1.2729 -4.4398 1.4394 8.4432 -0.5654 -4.1073 11.5502 10.2287 -1.1758 5.5640 3.8008 0.0000 -0.0000 0.0000 -83.6115 1.5650 12.6206 68.6829 -58.2114 -41.6497 -0.0000 -0.0000 8.3327 23.9289 28.8599 12.0890 -7.1250 0.0000 -0.0000 -8.0952 60.8865 -3.1456 0.0000 -0.0000 0.0000 78.7895 -9.2190 18.5839 -33.5454 43.7451 -13.7978 0.0000 -0.0000 -6.7736 -32.5562 16.1619 -10.0771 7.1250 -0.0000 -0.0000 -3.1688 -11.0276 -2.5081
0.00 0.00 0.00 -117.5140 -85.2869 -257.0470 0.0000 0.0000 0.0000 -14.6582 -14.5624 -26.4056 13.2451 18.8689 69.8850 0.0054 -10.3105 -7.3163 0.5497 -4.7497 -13.1961 0.0000 0.0000 0.0000 26.2870 10.8283 -23.6086 -12.6602 -18.6560 68.0668 -0.4588 0.5952 -12.6023 -0.8120 -5.7503 16.0617 3.0677 1.7417 12.6475 3.5947 2.7261 2.7467 1.6007 1.2585 -4.2320 0.5714 8.9110 -2.2860 -4.1327 12.2194 9.0548 -0.9545 5.8755 3.6716 -0.0000 -0.0000 0.0000 -84.1911 0.6753 11.2670 73.2791 -58.9168 -45.5720 -0.0000 -0.0000 8.2917 25.0578 29.6282 13.0146 -7.1250 0.0000 -0.0000 -7.2201 61.9587 -2.9868 -0.0000 -0.0000 0.0000 79.1665 -7.5657 18.5489 -32.1528 42.6687 -12.8443 0.0000 -0.0000 -6.0289 -32.5512 14.9949 -9.3781 7.1250 -0.0000 -0.0000 -3.3187 -12.3733 -2.5348
0.00 0.00 0.00 -41.7056 -81.4600 -330.6190 0.0000 0.0000 0.0000 -13.1040 -10.2157 -24.0005 17.1115 19.7988 81.5274 -0.4095 -27.4103 -16.8361 0.0397 1.2856 3.5349 0.0000 0.0000 0.0000 24.3642 -0.7190 -28.7849 -19.7595 -19.9986 89.2967 -0.3162 -3.4928 -12.4926 -0.4142 -4.1313 11.4462 4.4986 3.2303 10.1823 3.4173 4.8807 1.1463 0.3736 2.3251 -4.4277 1.1562 11.7892 -7.6122 -11.0972 16.8705 8.8130 -2.3740 7.6502 4.9656 -0.0000 0.0000 0.0000 -92.3684 7.2467 15.9063 50.8657 -53.3387 -26.8670 -0.0000 -0.0000 7.5588 21.7794 28.3697 10.7497 -7.1250 0.0000 -0.0000 -10.2424 59.8668 -3.7401 -0.0000 0.0000 0.0000 83.0148 -7.8354 24.1984 -24.3712 35.5544 -7.9214 0.0000 -0.0000 -6.6375 -30.6229 16.7188 -9.6639 7.1250 -0.0000 -0.0000 -1.8310 -10.7459 -1.4582
0.00 0.00 0.00 -12.3609 -70.6268 -354.9940 0.0000 0.0000 0.0000 -17.0757 -18.3451 -14.2334 11.8140 18.3109 65.3980 -1.8505 -28.7240 -7.5249 0.8712 5.9510 16.6422 0.0000 0.0000 0.0000 24.0431 6.0583 -38.2670 -18.0828 -19.9116 84.3865 0.4818 -13.4311 -11.0036 -3.1198 -10.8865 31.8981 3.4922 4.2879 9.6007 1.3382 6.1143 0.6995 -1.3548 2.9561 -4.4171 2.0161 16.1890 -6.5033 -17.5950 24.4721 13.3199 -3.4738 10.5507 7.7131 -0.0000 -0.0000 0.0000 -90.2093 6.4267 8.8900 40.6350 -48.4416 -18.9130 -0.0000 -0.0000 3.3361 19.3991 32.6090 10.7451 -7.1250 0.0000 -0.0000 -15.8793 63.4457 -7.1972 -0.0000 -0.0000 0.0000 84.5073 -11.5320 21.0184 -25.2318 36.4400 -8.4272 0.0000 -0.0000 -9.6208 -31.5610 14.0232 -8.4661 7.1250 -0.0000 -0.0000 -2.7771 -13.6572 -2.0453
0.00 0.00 0.00 -4.9006 -51.1533 -358.8270 0.0000 0.0000 0.0000 -14.7268 -26.1431 -10.5386 8.7916 16.6717 55.3665 -4.3174 -34.8668 4.9844 1.9507 8.7625 25.0553 0.0000 0.0000 0.0000 14.8655 22.1063 -31.0470 -7.2606 -15.5475 49.8532 -0.1198 3.3525 -6.2314 -0.7527 -5.5414 15.4593 1.9283 3.0746 11.2097 0.0924 4.3076 0.8977 -1.6475 2.0701 -5.1997 2.7583 17.3861 -4.2445 -18.6570 27.4743 19.0013 -3.5559 11.5540 9.9107 0.0000 -0.0000 0.0000 -87.5459 0.7943 5.7886 31.9947 -42.5430 -12.7372 -0.0000 0.0000 -0.2415 20.4137 34.1197 11.7916 -7.1250 0.0000 -0.0000 -16.0388 65.1687 -7.9142 0.0000 -0.0000 0.0000 86.6468 -12.5041 18.5817 -21.9671 32.9398 -6.5679 0.0000 -0.0000 -11.0059 -31.8043 15.6748 -9.5113 7.1250 -0.0000 -0.0000 -2.7380 -11.7231 -2.1271
0.00 0.00 0.00 -3.5416 41.2554 -353.1620 0.0000 0.0000 0.0000 -16.3056 -3.7211 -23.8670 5.3531 13.7708 42.3269 0.8951 9.0125 -23.2993 0.0117 -0.6991 -1.9212 0.0000 0.0000 0.0000 19.0624 5.3818 -29.5515 -5.4437 -13.8667 42.7061 -1.2786 -21.3680 -37.6584 -5.7858 -14.2175 44.1159 6.0668 1.5533 8.5451 1.9301 2.8150 -0.6291 -1.7496 1.2510 -5.2682 1.5651 8.4544 -7.6655 -12.2056 15.9577 27.5327 -2.6546 6.3826 11.4205 0.0000 0.0000 0.0000 -90.6362 6.5570 -4.2821 22.1427 -33.1379 -6.6637 -0.0000 -0.0000 7.3428 14.5763 32.0044 7.8469 -7.1250 0.0000 -0.0000 -20.7153 61.6403 -8.5931 0.0000 0.0000 0.0000 77.2205 -4.5103 9.4351 -24.0420 35.2086 -7.7308 0.0000 -0.0000 -13.2725 -35.9191 10.8580 -7.7704 7.1250 -0.0000 -0.0000 -6.1310 -16.7037 -4.1341
0.00 0.00 0.00 -143.2920 -87.5729 -570.7940 0.0000 0.0000 0.0000 -15.6919 -14.8998 -34.3020 4.4152 12.6934 38.2312 0.1226 4.9339 -10.2147 0.0461 1.3851 3.8091 0.0000 0.0000 0.0000 28.1087 1.3898 -9.2589 -4.2886 -12.5348 37.6512 -2.6992 -12.6914 -37.5141 -1.8734 -8.5973 24.5436 3.4079 2.6560 9.1011 2.5850 3.8950 1.2399 0.3004 1.8642 -3.7606 -2.8096 1.2761 -12.5341 -5.5152 3.4168 26.5598 -1.1030 0.4062 10.6753 -0.0000 0.0000 0.0000 -91.0624 5.0228 -25.0862 17.3966 -27.3777 -4.2681 -0.0000 -0.0000 8.9094 12.5558 31.1123 6.5648 -7.1250 0.0000 -0.0000 -22.1200 60.3294 -8.5152 -0.0000 0.0000 0.0000 83.7700 4.0738 17.0973 -21.1167 31.9643 -6.1116 0.0000 -0.0000 -8.5669 -32.4021 15.8884 -9.8568 7.1250 -0.0000 -0.0000 -3.1041 -11.3706 -2.4348
0.00 0.00 0.00 -6.6724 -86.9923 -709.8050 0.0000 0.0000 0.0000 -21.4995 -15.9876 -24.5656 4.5327 12.8374 38.7628 0.3933 4.1346 -14.0955 0.0033 0.3685 1.0125 0.0000 0.0000 0.0000 18.4089 2.9942 -41.8938 -20.5571 -19.9926 91.6291 -0.0390 -8.3453 -12.6350 -2.1423 -9.1564 26.2859 -0.4559 1.2691 11.8318 1.2695 1.6255 1.7131 1.3294 0.7904 -4.8882 -3.9096 0.1418 -10.1321 -6.1528 1.9217 32.2168 -1.4942 -0.7826 12.3856 -0.0000 0.0000 0.0000 -92.3706 4.1224 -21.7945 17.7282 -27.8078 -4.4217 -0.0000 -0.0000 11.8088 10.9125 30.0282 5.5108 -7.1250 0.0000 -0.0000 -22.9634 58.9596 -8.1019 -0.0000 0.0000 0.0000 83.8911 -0.5132 12.4620 -20.3889 31.1080 -5.7309 0.0000 -0.0000 -7.8504 -31.6597 15.8955 -9.5861 7.1250 -0.0000 -0.0000 -2.6148 -11.4963 -2.0434
0.00 0.00 0.00 -15.0782 -79.6131 -694.4360 0.0000 0.0000 0.0000 -11.5943 -12.3037 -30.1575 9.5743 17.1634 58.0558 0.1360 -1.6845 7.7978 0.0014 -0.2441 -0.6706 0.0000 0.0000 0.0000 24.7753 14.5479 -48.6443 -11.0154 -17.9426 62.8315 -1.4488 -4.3319 -24.6578 -5.1920 -13.5968 41.6456 2.8551 -0.2038 14.6102 3.3740 0.2780 1.9372 1.9095 0.0511 -6.1437 -4.4821 0.8570 -8.2672 -6.0630 2.8063 33.6671 -1.2817 -0.4923 12.6123 0.0000 0.0000 0.0000 -88.5177 4.7766 -7.2863 30.8515 -41.6122 -11.9711 -0.0000 -0.0000 6.4298 14.7322 28.1932 7.0814 -7.1250 0.0000 -0.0000 -17.7041 58.0902 -5.7889 0.0000 0.0000 0.0000 82.1039 -0.3857 13.0498 -22.5236 33.5637 -6.8731 0.0000 -0.0000 -7.4741 -31.4827 15.8638 -9.5030 7.1250 -0.0000 -0.0000 -2.5022 -11.5639 -1.9517
